<?xml version="1.0" encoding="utf-8"?>
<!-- Generator: Adobe Illustrator 18.0.0, SVG Export Plug-In . SVG Version: 6.00 Build 0)  -->
<!DOCTYPE svg PUBLIC "-//W3C//DTD SVG 1.1//EN" "http://www.w3.org/Graphics/SVG/1.1/DTD/svg11.dtd">
<svg version="1.1" id="Layer_1" xmlns="http://www.w3.org/2000/svg" xmlns:xlink="http://www.w3.org/1999/xlink" x="0px" y="0px"
	 viewBox="60 888 168 144" enable-background="new 60 888 168 144" xml:space="preserve">
<g id="svg3336">
	<g>
		<path stroke="#000000" stroke-linecap="round" stroke-linejoin="round" stroke-miterlimit="1.4142" d="M176.8,942h-13.3
			c7.5-3.7,14.1-7.6,20.5-11.5c-6,1.8-12.7,3.3-20.5,4.5c5.9-3.5,10.9-7.3,15.7-11.1c-18.8,8.2-41.4,11.6-69.6,8.2
			c-8.5,4.8-6.4,9.1,0,12.8l-1-3.9l4.5-2.3l17.6,10.9c-4.2-0.5-8.5-1.3-13.4-2.8c5.5,3.6,11.1,7.3,16.6,11.3
			c1.9,7.3,2.8,14.3,3.3,21.3h-8.2l10.9,16.7l11-16.7h-8.3c0.4-10.6,1.8-16.9,3.7-21.3C151.9,952.2,162.7,946.9,176.8,942z
			 M139.8,946.1l-13.3-9.3h27.1L139.8,946.1z"/>
	</g>
</g>
</svg>

